<svg width="70" height="70" viewBox="0 0 70 70" fill="none" xmlns="http://www.w3.org/2000/svg">
<rect width="70" height="70" rx="35" fill="#FFC845"/>
<path d="M21.35 42.3501H48.65C49.8092 42.3501 50.75 43.2909 50.75 44.4501V48.6501C50.75 49.8093 49.8092 50.7501 48.65 50.7501H21.35C20.1908 50.7501 19.25 49.8093 19.25 48.6501V44.4501C19.25 43.2909 20.1908 42.3501 21.35 42.3501Z" fill="white" stroke="black" stroke-linecap="round" stroke-linejoin="round"/>
<path d="M23.4502 46.55H40.2502" stroke="#FFC845" stroke-linecap="round" stroke-linejoin="round"/>
<path d="M32.5361 19.25C34.6081 19.25 36.0501 21.35 36.0501 24.5" stroke="black" stroke-linecap="round" stroke-linejoin="round"/>
<path d="M39.0055 23.4499L36.0501 24.4999L33.3075 23.4499C31.6933 22.5525 29.6829 22.8017 28.3375 24.0687C30.3157 26.1869 30.2023 29.5091 28.0841 31.4873C27.7075 31.8387 27.2819 32.1327 26.8213 32.3595C27.8097 36.5385 30.3003 39.9055 32.8637 40.2401C33.1409 40.2667 33.4195 40.2107 33.6645 40.0791L35.6245 39.0991C36.0473 38.8891 36.5443 38.8891 36.9671 39.0991L38.9201 40.0791C39.1651 40.2107 39.4437 40.2667 39.7209 40.2401C42.5055 39.8761 45.7773 35.9337 46.5571 31.2605C47.2095 27.2999 44.8771 20.8431 39.0055 23.4499Z" stroke="black" stroke-linecap="round" stroke-linejoin="round"/>
<path d="M38.3687 26.3809C42.9357 25 44 29 42.9357 31.3189" stroke="white" stroke-linecap="round" stroke-linejoin="round"/>
<circle cx="45.5" cy="46.5" r="1.5" fill="#FFC845"/>
</svg>
