<svg width="70" height="70" viewBox="0 0 70 70" fill="none" xmlns="http://www.w3.org/2000/svg">
<rect width="70" height="70" rx="35" fill="#FFC845"/>
<path d="M27.6499 21.3513C30.5493 21.3513 32.8999 23.7019 32.8999 26.6013C32.8999 29.5007 30.5493 31.8513 27.6499 31.8513C24.7505 31.8513 22.3999 29.5007 22.3999 26.6013C22.3999 23.7019 24.7505 21.3513 27.6499 21.3513Z" stroke="black" stroke-linecap="round" stroke-linejoin="round"/>
<path d="M25 27.8284L27.8284 24.9999" stroke="white" stroke-linecap="round" stroke-linejoin="round"/>
<path d="M41 27.8284L43.8284 24.9999" stroke="white" stroke-linecap="round" stroke-linejoin="round"/>
<path d="M29 28.0605L30.0607 26.9999" stroke="white" stroke-linecap="round" stroke-linejoin="round"/>
<path d="M42.3501 21.3513C45.2495 21.3513 47.6001 23.7019 47.6001 26.6013C47.6001 29.5007 45.2495 31.8513 42.3501 31.8513C39.4507 31.8513 37.1001 29.5007 37.1001 26.6013C37.1001 23.7019 39.4507 21.3513 42.3501 21.3513Z" stroke="black" stroke-linecap="round" stroke-linejoin="round"/>
<path d="M32.8999 26.7008C32.8999 25.5416 33.8407 24.6008 34.9999 24.6008C36.1591 24.6008 37.0999 25.5416 37.0999 26.7008" stroke="black" stroke-linecap="round" stroke-linejoin="round"/>
<path d="M50.75 48.6513H23.45C21.1302 48.6513 19.25 46.7711 19.25 44.4513V40.2513C19.25 37.9315 21.1302 36.0513 23.45 36.0513H50.75" fill="white"/>
<path d="M50.75 48.6513H23.45C21.1302 48.6513 19.25 46.7711 19.25 44.4513V40.2513C19.25 37.9315 21.1302 36.0513 23.45 36.0513H50.75" stroke="black" stroke-linecap="round" stroke-linejoin="round"/>
<path d="M50.7501 26.6013H47.6001" stroke="black" stroke-linecap="round" stroke-linejoin="round"/>
<path d="M23.4502 40.2512H48.6502" stroke="#FFC845" stroke-linecap="round" stroke-linejoin="round"/>
<path d="M23.4502 44.4514H48.6502" stroke="#FFC845" stroke-linecap="round" stroke-linejoin="round"/>
<path d="M22.4 26.6013H19.25" stroke="black" stroke-linecap="round" stroke-linejoin="round"/>
</svg>
