<svg width="70" height="70" viewBox="0 0 70 70" fill="none" xmlns="http://www.w3.org/2000/svg">
<rect width="70" height="70" rx="35" fill="#FFC845"/>
<path d="M28.942 46.5067C26.2218 45.6065 23.3854 45.1067 20.5224 45.0227C19.4122 44.9611 18.5456 44.0413 18.5498 42.9297V24.2201C18.547 23.0609 19.485 22.1173 20.6442 22.1145C20.6946 22.1145 20.745 22.1159 20.7954 22.1201C29.649 22.5835 34.2998 25.7433 34.2998 28.1597C34.2998 25.7601 39.5008 22.6199 47.7972 22.1285C48.9536 22.0445 49.9602 22.9139 50.0442 24.0703C50.0484 24.1235 50.0498 24.1753 50.0498 24.2285V41.8685" stroke="black" stroke-linecap="round" stroke-linejoin="round"/>
<path d="M34.2998 28.1597V33.6015" stroke="black" stroke-linecap="round" stroke-linejoin="round"/>
<path d="M30.579 30.1672C28.0576 29.2572 25.4396 28.6454 22.7754 28.3472" stroke="white" stroke-linecap="round" stroke-linejoin="round"/>
<path d="M44.6797 33.9094C45.1641 33.831 45.6597 33.7582 46.1679 33.6924" stroke="white" stroke-linecap="round" stroke-linejoin="round"/>
<path d="M30.579 35.5082C28.0562 34.6052 25.4382 33.9948 22.7754 33.6882" stroke="white" stroke-linecap="round" stroke-linejoin="round"/>
<path d="M30.5786 41.1684C28.032 40.2626 25.3902 39.6522 22.7036 39.3484" stroke="white" stroke-linecap="round" stroke-linejoin="round"/>
<path d="M38.3599 30.1769C40.9079 29.2711 43.5511 28.6593 46.2391 28.3569" stroke="white" stroke-linecap="round" stroke-linejoin="round"/>
<path d="M49.8903 53.5514L50.0303 51.9806C50.2221 49.8764 48.8207 47.9584 46.7585 47.5006L41.6471 46.3652V38.3264C41.6471 36.876 40.4725 35.7014 39.0221 35.7014C37.5717 35.7014 36.3971 36.876 36.3971 38.3264V51.2134L34.3293 49.6622C33.3801 48.951 32.0361 49.1442 31.3249 50.0934C30.7537 50.8564 30.7537 51.9036 31.3249 52.6666L31.9885 53.5514" stroke="black" stroke-linecap="round" stroke-linejoin="round"/>
</svg>
