<svg width="70" height="70" viewBox="0 0 70 70" fill="none" xmlns="http://www.w3.org/2000/svg">
<rect width="70" height="70" rx="35" fill="#FFC845"/>
<path d="M25.8379 47.1001C18.8167 46.588 13.6158 40.5709 14.1359 33.6576C14.656 26.7443 20.767 21.6233 27.7882 22.1354C33.2491 22.6475 37.7999 26.4882 39.1001 31.8652" stroke="white" stroke-width="1.25" stroke-miterlimit="8" stroke-linecap="round" stroke-linejoin="round"/>
<path d="M21.1913 46.1001V40.5471C21.1913 40.5471 22.5398 39.9301 22.9444 39.3132C23.2141 38.8196 23.0792 38.326 22.9444 37.9558L21.1913 34.9942C20.6519 34.2538 19.8428 34.007 19.1685 34.1304L13.1001 35.4878" fill="white"/>
<path d="M21.1913 46.1001V40.5471C21.1913 40.5471 22.5398 39.9301 22.9444 39.3132C23.2141 38.8196 23.0792 38.326 22.9444 37.9558L21.1913 34.9942C20.6519 34.2538 19.8428 34.007 19.1685 34.1304L13.1001 35.4878" stroke="black" stroke-miterlimit="8" stroke-linecap="round" stroke-linejoin="round"/>
<path d="M19.1987 23.2786V28.8786C19.1987 29.7186 19.7587 30.4186 20.5987 30.6986L23.2587 31.5386C24.2387 31.8186 25.2187 31.2586 25.4987 30.2786C25.4987 30.1386 25.4987 29.9986 25.4987 29.8586V27.7586L31.3787 26.7786C32.2187 26.6386 32.9187 25.9386 32.9187 24.9586V22.5786" fill="white"/>
<path d="M19.1987 23.2786V28.8786C19.1987 29.7186 19.7587 30.4186 20.5987 30.6986L23.2587 31.5386C24.2387 31.8186 25.2187 31.2586 25.4987 30.2786C25.4987 30.1386 25.4987 29.9986 25.4987 29.8586V27.7586L31.3787 26.7786C32.2187 26.6386 32.9187 25.9386 32.9187 24.9586V22.5786" stroke="black" stroke-miterlimit="8" stroke-linecap="round" stroke-linejoin="round"/>
<path d="M25.6768 48C18.0939 47.4469 12.477 40.9484 13.0387 33.4821C13.6004 26.0157 20.2003 20.485 27.7832 21.0381C33.6809 21.5912 38.5958 25.7392 40 31.5463" stroke="black" stroke-miterlimit="8" stroke-linecap="round" stroke-linejoin="round"/>
<path d="M32.9751 37.1001H44.2251C45.2601 37.1001 46.1001 37.9401 46.1001 38.9751V50.2251C46.1001 51.2601 45.2601 52.1001 44.2251 52.1001H32.9751C31.9401 52.1001 31.1001 51.2601 31.1001 50.2251V38.9751C31.1001 37.9401 31.9401 37.1001 32.9751 37.1001Z" fill="white" stroke="white" stroke-linecap="round" stroke-linejoin="round"/>
<path d="M49.3501 39.1001L56.3501 39.1001C57.3161 39.1001 58.1001 38.2601 58.1001 37.2251L58.1001 25.9751C58.1001 24.9401 57.3161 24.1001 56.3501 24.1001L45.8501 24.1001C44.8841 24.1001 44.1001 24.9401 44.1001 25.9751L44.1001 33.4751" stroke="white" stroke-linecap="round" stroke-linejoin="round"/>
<path d="M49.1001 35.1001V29.8501C49.1001 28.8841 49.9961 28.1001 51.1001 28.1001C52.2041 28.1001 53.1001 28.8841 53.1001 29.8501V35.1001" stroke="black" stroke-linecap="round" stroke-linejoin="round"/>
<path d="M49.1001 33.1001H53.1001" stroke="black" stroke-linecap="round" stroke-linejoin="round"/>
<path d="M38.1001 41.1001V43.1001" stroke="black" stroke-linecap="round" stroke-linejoin="round"/>
<path d="M35.1001 43.1001H42.1001" stroke="black" stroke-linecap="round" stroke-linejoin="round"/>
<path d="M39.1001 43.1001C39.1001 43.1001 37.4334 48.1001 34.1001 48.1001" stroke="black" stroke-linecap="round" stroke-linejoin="round"/>
<path d="M38.1001 46.1001C39.0041 47.2662 40.4814 48.0044 42.1001 48.1001" stroke="black" stroke-linecap="round" stroke-linejoin="round"/>
</svg>
