<svg width="70" height="70" viewBox="0 0 70 70" fill="none" xmlns="http://www.w3.org/2000/svg">
<rect width="70" height="70" rx="35" fill="#FFC845"/>
<path d="M19.6001 31H51.1001" stroke="white" stroke-linecap="round" stroke-linejoin="round"/>
<rect x="20" y="24" width="31" height="8" fill="white"/>
<path d="M22.9333 30H48.0667C49.1339 30 50 30.6892 50 31.5385V48.4615C50 49.3108 49.1339 50 48.0667 50H22.9333C21.8661 50 21 49.3108 21 48.4615V31.5385C21 30.6892 21.8661 30 22.9333 30Z" stroke="white" stroke-linecap="round" stroke-linejoin="round"/>
<path d="M19.6001 31H51.1001" stroke="#FFC845" stroke-linecap="round" stroke-linejoin="round"/>
<path d="M21.7334 23.8H49.4668C50.6444 23.8 51.6001 24.765 51.6001 25.9539V49.6462C51.6001 50.8351 50.6444 51.8 49.4668 51.8H21.7334C20.5558 51.8 19.6001 50.8351 19.6001 49.6462V25.9539C19.6001 24.765 20.5558 23.8 21.7334 23.8Z" stroke="black" stroke-linecap="round" stroke-linejoin="round"/>
<path d="M19.6001 32.2H51.1001" stroke="black" stroke-linecap="round" stroke-linejoin="round"/>
<path d="M28 26.9501V19.6001" stroke="black" stroke-linecap="round" stroke-linejoin="round"/>
<path d="M44 26.9501V19.6001" stroke="black" stroke-linecap="round" stroke-linejoin="round"/>
<path d="M27.5 36C26.672 36 26 36.672 26 37.5C26 38.328 26.672 39 27.5 39C28.328 39 29 38.328 29 37.5C29 36.672 28.328 36 27.5 36Z" fill="black"/>
<path d="M27.5 43.3501C26.672 43.3501 26 44.0221 26 44.8501C26 45.6781 26.672 46.3501 27.5 46.3501C28.328 46.3501 29 45.6781 29 44.8501C29 44.0221 28.328 43.3501 27.5 43.3501Z" fill="black"/>
<path d="M36.4253 36C35.5973 36 34.9253 36.672 34.9253 37.5C34.9253 38.328 35.5973 39 36.4253 39C37.2533 39 37.9253 38.328 37.9253 37.5C37.9253 36.672 37.2533 36 36.4253 36Z" fill="black"/>
<path d="M36.4253 43.3501C35.5973 43.3501 34.9253 44.0221 34.9253 44.8501C34.9253 45.6781 35.5973 46.3501 36.4253 46.3501C37.2533 46.3501 37.9253 45.6781 37.9253 44.8501C37.9253 44.0221 37.2533 43.3501 36.4253 43.3501Z" fill="black"/>
<path d="M45.3501 36C44.5221 36 43.8501 36.672 43.8501 37.5C43.8501 38.328 44.5221 39 45.3501 39C46.1781 39 46.8501 38.328 46.8501 37.5C46.8501 36.672 46.1781 36 45.3501 36Z" fill="black"/>
<path d="M45.3501 43.3501C44.5221 43.3501 43.8501 44.0221 43.8501 44.8501C43.8501 45.6781 44.5221 46.3501 45.3501 46.3501C46.1781 46.3501 46.8501 45.6781 46.8501 44.8501C46.8501 44.0221 46.1781 43.3501 45.3501 43.3501Z" fill="black"/>
</svg>
