<svg width="116" height="116" viewBox="0 0 116 116" fill="none" xmlns="http://www.w3.org/2000/svg">
<g clip-path="url(#clip0)">
<circle cx="58" cy="58" r="58" fill="#EDEDED"/>
<path d="M4 95.5H39L96 38.5H119" stroke="white"/>
<path d="M73.5 61.5H31.5L0.5 30.5" stroke="white"/>
<path d="M32 61.5L3.5 90" stroke="white"/>
<path d="M21 50.5L72.5 -1" stroke="white"/>
<path d="M82 52L116 86" stroke="white"/>
<path d="M51 83L84 116" stroke="white"/>
<ellipse opacity="0.15" cx="57.8434" cy="93.6525" rx="14.2609" ry="5.34782" fill="black"/>
<path d="M81.7303 40.5304C81.7303 27.5174 71.2129 17 58.1998 17C45.1868 17 34.6694 27.5174 34.6694 40.5304C34.6694 41.4217 34.6694 42.4913 34.8477 43.3826V43.5608C35.2042 46.0565 35.739 48.3739 36.8086 50.6913C36.9868 51.0478 37.1651 51.4043 37.3433 51.7608L58.1998 93.1173L79.0564 51.5826C79.2346 51.2261 79.4129 50.8695 79.5911 50.513C80.6607 48.1956 81.3737 45.8782 81.552 43.3826C81.7303 42.4913 81.7303 41.4217 81.7303 40.5304ZM73.7085 42.4913C73.5303 44.0956 72.9955 45.7 72.2824 47.1261L71.9259 47.8391C67.8259 55.5043 58.3781 58.3565 50.8912 54.2565C48.2172 52.8304 45.8999 50.513 44.4738 47.8391C44.2955 47.6608 44.2955 47.3043 44.1173 47.1261C43.4042 45.7 43.0477 44.0956 42.6912 42.4913C42.6912 41.9565 42.5129 41.2435 42.5129 40.5304C42.5129 39.9956 42.5129 39.4608 42.5129 39.1043C43.2259 31.6174 49.1086 25.7348 56.5955 25.0217C57.1303 25.0217 57.4868 25.0217 58.0216 25.0217C58.5564 25.0217 58.9129 25.0217 59.4477 25.0217C66.9346 25.7348 72.8172 31.6174 73.5303 39.1043C73.5303 39.6391 73.5303 39.9956 73.5303 40.5304C73.7085 41.2435 73.7085 41.7782 73.7085 42.4913Z" fill="#00A9E0"/>
</g>
<defs>
<clipPath id="clip0">
<rect width="116" height="116" fill="white"/>
</clipPath>
</defs>
</svg>
